<svg xmlns="http://www.w3.org/2000/svg" viewBox="0 0 800 620" width="800" height="620">
  <style>
    .title { font-family: -apple-system, 'Segoe UI', Roboto, Helvetica, Arial, sans-serif; font-size: 22px; font-weight: 700; fill: #0f172a; }
    .header { font-family: -apple-system, 'Segoe UI', Roboto, Helvetica, Arial, sans-serif; font-size: 11px; font-weight: 600; fill: #334155; letter-spacing: 0.5px; text-transform: uppercase; }
    .body { font-family: -apple-system, 'Segoe UI', Roboto, Helvetica, Arial, sans-serif; font-size: 13px; font-weight: 500; fill: #0f172a; }
    .caption { font-family: -apple-system, 'Segoe UI', Roboto, Helvetica, Arial, sans-serif; font-size: 11px; font-weight: 400; fill: #64748b; }
    .tag { font-family: -apple-system, 'Segoe UI', Roboto, Helvetica, Arial, sans-serif; font-size: 10px; font-weight: 500; fill: #64748b; letter-spacing: 0.5px; text-transform: uppercase; }
  </style>

  <rect width="800" height="620" fill="#ffffff"/>

  <!-- Title -->
  <text x="400" y="36" class="title" text-anchor="middle">AI Security Frameworks as a Stack</text>
  <line x1="140" y1="52" x2="660" y2="52" stroke="#f1f5f9" stroke-width="1"/>

  <!-- Layer 1: Garak / PyRIT (top, filled) -->
  <rect x="140" y="70" width="520" height="60" rx="8" fill="#0f172a"/>
  <text x="400" y="95" class="body" style="fill:#ffffff" text-anchor="middle">Garak / PyRIT</text>
  <text x="400" y="113" font-family="-apple-system, 'Segoe UI', Roboto, Helvetica, Arial, sans-serif" font-size="11px" font-weight="400" fill="#94a3b8" text-anchor="middle">Operationalize testing</text>

  <!-- Arrow down -->
  <line x1="400" y1="130" x2="400" y2="155" stroke="#0f172a" stroke-width="2"/>
  <polygon points="396,151 404,151 400,159" fill="#0f172a"/>

  <!-- Layer 2: OWASP LLM / Agentic Top 10 -->
  <rect x="140" y="155" width="520" height="60" rx="8" fill="#ffffff" stroke="#e2e8f0" stroke-width="1.5"/>
  <text x="400" y="180" class="body" text-anchor="middle">OWASP LLM / Agentic Top 10</text>
  <text x="400" y="198" font-family="-apple-system, 'Segoe UI', Roboto, Helvetica, Arial, sans-serif" font-size="11px" font-weight="400" fill="#64748b" text-anchor="middle">Map findings to vulnerability categories</text>

  <!-- Arrow down -->
  <line x1="400" y1="215" x2="400" y2="240" stroke="#0f172a" stroke-width="2"/>
  <polygon points="396,236 404,236 400,244" fill="#0f172a"/>

  <!-- Layer 3: MITRE ATLAS -->
  <rect x="140" y="240" width="520" height="60" rx="8" fill="#ffffff" stroke="#e2e8f0" stroke-width="1.5"/>
  <text x="400" y="265" class="body" text-anchor="middle">MITRE ATLAS</text>
  <text x="400" y="283" font-family="-apple-system, 'Segoe UI', Roboto, Helvetica, Arial, sans-serif" font-size="11px" font-weight="400" fill="#64748b" text-anchor="middle">Validate coverage against known threats</text>

  <!-- Arrow down -->
  <line x1="400" y1="300" x2="400" y2="325" stroke="#0f172a" stroke-width="2"/>
  <polygon points="396,321 404,321 400,329" fill="#0f172a"/>

  <!-- Layer 4: MAESTRO or STRIDE-AI (accent) -->
  <rect x="140" y="325" width="520" height="60" rx="8" fill="#ffffff" stroke="#2563eb" stroke-width="2"/>
  <text x="400" y="350" class="body" text-anchor="middle">MAESTRO or STRIDE-AI</text>
  <text x="400" y="368" font-family="-apple-system, 'Segoe UI', Roboto, Helvetica, Arial, sans-serif" font-size="11px" font-weight="400" fill="#2563eb" text-anchor="middle">Identify threats in your system</text>

  <!-- Arrow down -->
  <line x1="400" y1="385" x2="400" y2="410" stroke="#0f172a" stroke-width="2"/>
  <polygon points="396,406 404,406 400,414" fill="#0f172a"/>

  <!-- Layer 5: NIST AI RMF -->
  <rect x="140" y="410" width="520" height="60" rx="8" fill="#ffffff" stroke="#e2e8f0" stroke-width="1.5"/>
  <text x="400" y="435" class="body" text-anchor="middle">NIST AI RMF</text>
  <text x="400" y="453" font-family="-apple-system, 'Segoe UI', Roboto, Helvetica, Arial, sans-serif" font-size="11px" font-weight="400" fill="#64748b" text-anchor="middle">Governance functions: GOVERN, MAP, MEASURE, MANAGE</text>

  <!-- Arrow down -->
  <line x1="400" y1="470" x2="400" y2="495" stroke="#0f172a" stroke-width="2"/>
  <polygon points="396,491 404,491 400,499" fill="#0f172a"/>

  <!-- Layer 6: ISO 42001 (bottom) -->
  <rect x="140" y="495" width="520" height="60" rx="8" fill="#ffffff" stroke="#e2e8f0" stroke-width="1.5"/>
  <text x="400" y="520" class="body" text-anchor="middle">ISO 42001</text>
  <text x="400" y="538" font-family="-apple-system, 'Segoe UI', Roboto, Helvetica, Arial, sans-serif" font-size="11px" font-weight="400" fill="#64748b" text-anchor="middle">Management system and certification</text>

  <!-- Right side labels -->
  <rect x="680" y="70" width="100" height="24" rx="12" fill="#f8fafc" stroke="#e2e8f0" stroke-width="1"/>
  <text x="730" y="86" class="tag" text-anchor="middle">Test</text>

  <rect x="680" y="155" width="100" height="24" rx="12" fill="#f8fafc" stroke="#e2e8f0" stroke-width="1"/>
  <text x="730" y="171" class="tag" text-anchor="middle">Categorize</text>

  <rect x="680" y="240" width="100" height="24" rx="12" fill="#f8fafc" stroke="#e2e8f0" stroke-width="1"/>
  <text x="730" y="256" class="tag" text-anchor="middle">Validate</text>

  <rect x="680" y="325" width="100" height="24" rx="12" fill="#e8f0fe" stroke="#2563eb" stroke-width="1"/>
  <text x="730" y="341" class="tag" style="fill:#2563eb" text-anchor="middle">Model</text>

  <rect x="680" y="410" width="100" height="24" rx="12" fill="#f8fafc" stroke="#e2e8f0" stroke-width="1"/>
  <text x="730" y="426" class="tag" text-anchor="middle">Govern</text>

  <rect x="680" y="495" width="100" height="24" rx="12" fill="#f8fafc" stroke="#e2e8f0" stroke-width="1"/>
  <text x="730" y="511" class="tag" text-anchor="middle">Certify</text>

  <!-- Caption -->
  <text x="400" y="590" class="caption" text-anchor="middle">Frameworks as a stack, not a competition. You do not need all six layers at once.</text>
</svg>
