<svg xmlns="http://www.w3.org/2000/svg" viewBox="0 0 800 620" width="800" height="620">
  <style>
    .title { font-family: -apple-system,'Segoe UI',Roboto,Helvetica,Arial,sans-serif; font-size:22px; font-weight:700; }
    .header { font-family: -apple-system,'Segoe UI',Roboto,Helvetica,Arial,sans-serif; font-size:11px; font-weight:600; letter-spacing:0.5px; text-transform:uppercase; }
    .body { font-family: -apple-system,'Segoe UI',Roboto,Helvetica,Arial,sans-serif; font-size:13px; font-weight:500; }
    .sub { font-family: -apple-system,'Segoe UI',Roboto,Helvetica,Arial,sans-serif; font-size:11px; font-weight:400; }
    .caption { font-family: -apple-system,'Segoe UI',Roboto,Helvetica,Arial,sans-serif; font-size:11px; font-weight:400; }
  </style>

  <rect width="800" height="620" fill="#ffffff"/>

  <text x="400" y="36" class="title" fill="#0f172a" text-anchor="middle">Hardened Loop Flow</text>
  <line x1="120" y1="52" x2="680" y2="52" stroke="#f1f5f9" stroke-width="1"/>

  <!-- Start -->
  <rect x="320" y="70" width="160" height="36" rx="18" fill="#0f172a"/>
  <text x="400" y="93" class="body" fill="#ffffff" text-anchor="middle">Start loop</text>

  <!-- Arrow down -->
  <line x1="400" y1="106" x2="400" y2="126" stroke="#0f172a" stroke-width="2"/>
  <polygon points="400,130 396,122 404,122" fill="#0f172a"/>

  <!-- Increment -->
  <rect x="320" y="130" width="160" height="40" rx="6" fill="#ffffff" stroke="#e2e8f0" stroke-width="1.5"/>
  <text x="400" y="148" class="sub" fill="#334155" text-anchor="middle">ITERATION = ITERATION + 1</text>
  <text x="400" y="164" class="sub" fill="#64748b" text-anchor="middle">Check: ITERATION &lt; MAX_ITERATIONS?</text>

  <!-- Arrow down -->
  <line x1="400" y1="170" x2="400" y2="190" stroke="#0f172a" stroke-width="2"/>
  <polygon points="400,194 396,186 404,186" fill="#0f172a"/>

  <!-- Agent run -->
  <rect x="320" y="194" width="160" height="56" rx="6" fill="#ffffff" stroke="#e2e8f0" stroke-width="1.5"/>
  <text x="400" y="216" class="body" fill="#0f172a" text-anchor="middle">Agent run</text>
  <text x="400" y="236" class="sub" fill="#334155" text-anchor="middle">Fresh process, reads TASK.md</text>

  <!-- Arrow down -->
  <line x1="400" y1="250" x2="400" y2="270" stroke="#0f172a" stroke-width="2"/>
  <polygon points="400,274 396,266 404,266" fill="#0f172a"/>

  <!-- Verify -->
  <rect x="320" y="274" width="160" height="56" rx="6" fill="#ffffff" stroke="#059669" stroke-width="2"/>
  <text x="400" y="296" class="body" fill="#059669" text-anchor="middle">Verify</text>
  <text x="400" y="316" class="sub" fill="#334155" text-anchor="middle">npm test + typecheck</text>

  <!-- Arrow down -->
  <line x1="400" y1="330" x2="400" y2="350" stroke="#0f172a" stroke-width="2"/>
  <polygon points="400,354 396,346 404,346" fill="#0f172a"/>

  <!-- Decision -->
  <rect x="320" y="354" width="160" height="56" rx="8" fill="#ffffff" stroke="#e2e8f0" stroke-width="1.5"/>
  <text x="400" y="378" class="body" fill="#0f172a" text-anchor="middle">Tests pass?</text>
  <text x="400" y="398" class="sub" fill="#64748b" text-anchor="middle">Machine decides, not agent</text>

  <!-- YES path -->
  <line x1="400" y1="410" x2="400" y2="430" stroke="#059669" stroke-width="2"/>
  <polygon points="400,434 396,426 404,426" fill="#059669"/>
  <text x="410" y="426" class="sub" fill="#059669">yes</text>

  <!-- Success -->
  <rect x="320" y="434" width="160" height="40" rx="6" fill="#059669"/>
  <text x="400" y="452" class="body" fill="#ffffff" text-anchor="middle">Commit + Stop</text>
  <text x="400" y="468" class="sub" fill="#d1fae5" text-anchor="middle">Goal met</text>

  <!-- NO path (right side) -->
  <line x1="480" y1="382" x2="560" y2="382" stroke="#64748b" stroke-width="1.5"/>
  <polygon points="564,382 556,377 556,387" fill="#64748b"/>
  <text x="520" y="374" class="sub" fill="#64748b" text-anchor="middle">no</text>

  <!-- No progress check -->
  <rect x="560" y="354" width="180" height="56" rx="6" fill="#ffffff" stroke="#e2e8f0" stroke-width="1.5"/>
  <text x="650" y="376" class="body" fill="#0f172a" text-anchor="middle">No-progress check</text>
  <text x="580" y="396" class="sub" fill="#334155">Diff unchanged 2x? then stop</text>

  <!-- Arrow down from no-progress check -->
  <line x1="650" y1="410" x2="650" y2="430" stroke="#64748b" stroke-width="1.5"/>
  <polygon points="650,434 646,426 654,426" fill="#64748b"/>

  <!-- Commit WIP -->
  <rect x="560" y="434" width="180" height="40" rx="6" fill="#ffffff" stroke="#e2e8f0" stroke-width="1.5"/>
  <text x="650" y="452" class="sub" fill="#334155" text-anchor="middle">git commit (WIP)</text>

  <!-- Arrow down -->
  <line x1="650" y1="474" x2="650" y2="494" stroke="#64748b" stroke-width="1.5"/>
  <polygon points="650,498 646,490 654,490" fill="#64748b"/>

  <!-- Feed back -->
  <rect x="560" y="498" width="180" height="40" rx="6" fill="#ffffff" stroke="#e2e8f0" stroke-width="1.5"/>
  <text x="650" y="516" class="sub" fill="#334155" text-anchor="middle">Append error to TASK.md</text>

  <!-- Arrow up (loop back) -->
  <path d="M 560 518 Q 480 518 480 150 Q 480 110 440 110" stroke="#64748b" stroke-width="1.5" stroke-dasharray="5,4"/>
  <polygon points="436,110 444,105 444,115" fill="#64748b"/>
  <text x="500" y="310" class="sub" fill="#64748b">next iteration</text>

  <!-- Caption -->
  <text x="400" y="590" class="caption" fill="#64748b" text-anchor="middle">Three safety brakes: iteration cap, no-progress detection, and machine verification. The agent's opinion never decides the outcome.</text>
</svg>
